<?xml version="1.0" encoding="UTF-8" standalone="no"?>
<svg
   viewBox="0 0 160.37 160.37"
   version="1.1"
   id="svg10"
   sodipodi:docname="uber-eats-logo.svg"
   width="160.37"
   height="160.37"
   inkscape:version="1.1 (c68e22c387, 2021-05-23)"
   xmlns:inkscape="http://www.inkscape.org/namespaces/inkscape"
   xmlns:sodipodi="http://sodipodi.sourceforge.net/DTD/sodipodi-0.dtd"
   xmlns="http://www.w3.org/2000/svg"
   xmlns:svg="http://www.w3.org/2000/svg">
  <defs
     id="defs14" />
  <sodipodi:namedview
     id="namedview12"
     pagecolor="#505050"
     bordercolor="#eeeeee"
     borderopacity="1"
     inkscape:pageshadow="0"
     inkscape:pageopacity="0"
     inkscape:pagecheckerboard="0"
     showgrid="false"
     inkscape:zoom="5.0632913"
     inkscape:cx="80.184998"
     inkscape:cy="80.283748"
     inkscape:window-width="1920"
     inkscape:window-height="1001"
     inkscape:window-x="-9"
     inkscape:window-y="-9"
     inkscape:window-maximized="1"
     inkscape:current-layer="svg10" />
  <g
     id="Layer_2"
     data-name="Layer 2">
    <g
       id="Squircles">
      <rect
         width="160.37"
         height="160.37"
         rx="31.59"
         style="fill:#142328"
         id="rect2"
         x="0"
         y="0" />
      <path
         d="m 76.86,107.45 a 8.33,8.33 0 1 0 -8.33,8.23 8.22,8.22 0 0 0 8.33,-8.23 M 83.66,94 v 27 h -6.93 v -2.43 A 13.66,13.66 0 0 1 68,121.61 14.17,14.17 0 1 1 68,93.28 13.72,13.72 0 0 1 76.77,96.4 V 94 Z m 23,20.84 h -5.21 c -1.59,0 -2.61,-0.69 -2.61,-2.12 v -12.64 h 7.82 V 94 h -7.79 v -7.7 h -7 V 94 h -5.26 v 6.11 h 5.27 v 14.35 c 0,3.62 2.61,6.49 7.31,6.49 h 7.5 z m 15.79,6.8 c 8,0 12.52,-3.74 12.52,-8.92 0,-3.68 -2.67,-6.43 -8.26,-7.61 l -5.91,-1.19 c -3.43,-0.62 -4.51,-1.25 -4.51,-2.49 0,-1.63 1.65,-2.63 4.7,-2.63 3.3,0 5.72,0.88 6.42,3.87 h 6.93 c -0.39,-5.61 -4.52,-9.36 -12.91,-9.36 -7.24,0 -12.33,2.94 -12.33,8.61 0,3.93 2.8,6.49 8.84,7.74 l 6.61,1.5 c 2.6,0.5 3.3,1.18 3.3,2.24 0,1.69 -2,2.75 -5.15,2.75 -4,0 -6.29,-0.87 -7.18,-3.87 h -7 c 1,5.62 5.28,9.36 13.92,9.36 M 25.38,84.43 h 26.13 v 6.23 H 32.44 v 8.93 H 51 v 6 H 32.44 v 9 h 19.07 v 6.24 H 25.38 Z"
         style="fill:#06c167"
         id="path4" />
      <path
         d="m 134.37,52.81 v -4.9 h -1.86 A 7.28,7.28 0 0 0 126,51.4 v -3.28 h -5.31 v 26.59 h 5.36 V 59.59 c 0,-4.12 2.55,-6.78 6.06,-6.78 z M 95.81,59 a 8.42,8.42 0 0 1 16.52,0 z M 104.2,47.6 A 13.8,13.8 0 0 0 90.28,61.41 c 0,7.93 6.27,13.87 14.4,13.87 a 14.26,14.26 0 0 0 11.68,-5.68 l -3.88,-2.82 a 9.36,9.36 0 0 1 -7.8,3.92 9,9 0 0 1 -9,-7.56 h 22 v -1.73 c 0,-7.92 -5.73,-13.81 -13.54,-13.81 M 73.56,70.7 a 9.23,9.23 0 1 1 9.29,-9.23 9.25,9.25 0 0 1 -9.29,9.23 M 59,74.71 h 5.31 v -3.34 a 13.66,13.66 0 0 0 9.67,4 13.9,13.9 0 1 0 0,-27.79 13.55,13.55 0 0 0 -9.62,4 V 38.21 H 59 Z M 40.1,70.43 c 5.15,0 9.13,-3.91 9.13,-9.69 V 38.21 h 5.58 v 36.5 h -5.53 v -3.39 a 13.54,13.54 0 0 1 -9.82,4 c -8,0 -14.08,-5.69 -14.08,-14.29 V 38.21 H 31 v 22.53 c 0,5.89 3.93,9.69 9.14,9.69"
         style="fill:#f6f0ea"
         id="path6" />
    </g>
  </g>
</svg>
